<?xml version="1.0" encoding="UTF-8" standalone="no"?>
<!-- Created with Inkscape (http://www.inkscape.org/) -->

<svg
   xmlns:dc="http://purl.org/dc/elements/1.1/"
   xmlns:cc="http://creativecommons.org/ns#"
   xmlns:svg="http://www.w3.org/2000/svg"
   xmlns="http://www.w3.org/2000/svg"
   xmlns:sodipodi="http://sodipodi.sourceforge.net/DTD/sodipodi-0.dtd"
   xmlns:inkscape="http://www.inkscape.org/namespaces/inkscape"
   width="298"
   height="57.5"
   viewBox="0 0 78.845831 15.213542"
   version="1.1"
   id="svg8"
   inkscape:version="0.92.3 (2405546, 2018-03-11)"
   sodipodi:docname="Logo_BUMN_Untuk_Indonesia_2020 (1).svg">
  <defs
     id="defs2" />
  <sodipodi:namedview
     id="base"
     pagecolor="#ffffff"
     bordercolor="#666666"
     borderopacity="1.0"
     inkscape:pageopacity="0.0"
     inkscape:pageshadow="2"
     inkscape:zoom="0.49497475"
     inkscape:cx="261.34376"
     inkscape:cy="253.65731"
     inkscape:document-units="mm"
     inkscape:current-layer="layer1"
     showgrid="false"
     showguides="true"
     inkscape:guide-bbox="true"
     inkscape:window-width="1366"
     inkscape:window-height="705"
     inkscape:window-x="-8"
     inkscape:window-y="-8"
     inkscape:window-maximized="1"
     units="px" />
  <g
     inkscape:label="Layer 1"
     inkscape:groupmode="layer"
     id="layer1"
     transform="translate(0,-281.81979)">
    <g
       transform="matrix(0.17277273,0,0,0.17277273,-43.894827,196.07938)"
       style="font-style:normal;font-variant:normal;font-weight:normal;font-stretch:normal;font-size:26.66666603px;line-height:1.25;font-family:'Lato';-inkscape-font-specification:'Lato Bold';text-align:start;letter-spacing:0.03042785px;word-spacing:0px;text-anchor:start;fill:#182957;fill-opacity:1;stroke:none;stroke-width:1.53139508"
       id="flowRoot1062">
      <path
         d="m 573.87659,549.95159 q 1.04,0 1.85333,-0.34667 0.82667,-0.34667 1.38667,-0.97333 0.57333,-0.62667 0.86666,-1.52 0.30667,-0.89334 0.30667,-2 v -11.54667 h 3.58667 v 11.54667 q 0,1.72 -0.56,3.18666 -0.54667,1.45334 -1.58667,2.52 -1.04,1.05334 -2.52,1.65334 -1.48,0.58666 -3.33333,0.58666 -1.85333,0 -3.33333,-0.58666 -1.48,-0.6 -2.52,-1.65334 -1.02667,-1.06666 -1.58667,-2.52 -0.54667,-1.46666 -0.54667,-3.18666 v -11.54667 h 3.58667 v 11.53333 q 0,1.10667 0.29333,2 0.30667,0.89334 0.86667,1.53334 0.56,0.62666 1.37333,0.97333 0.82667,0.34667 1.86667,0.34667 z"
         style="font-style:normal;font-variant:normal;font-weight:bold;font-stretch:normal;font-family:Lato;-inkscape-font-specification:'Lato Bold';letter-spacing:0.16228186px;word-spacing:0px;fill:#182957;fill-opacity:1;stroke-width:0.77441567"
         id="path859"
         inkscape:connector-curvature="0" />
      <path
         d="m 587.58595,533.56492 q 0.24,0 0.4,0.0267 0.16,0.0133 0.28,0.08 0.13333,0.0533 0.25333,0.17333 0.12,0.10667 0.26667,0.29334 l 10.12,12.89333 q -0.0533,-0.46667 -0.08,-0.90667 -0.0133,-0.45333 -0.0133,-0.84 v -11.72 h 3.16 v 19.28 h -1.85334 q -0.42666,0 -0.70666,-0.13333 -0.28,-0.13334 -0.54667,-0.48 l -10.08,-12.84 q 0.04,0.42666 0.0533,0.85333 0.0267,0.41333 0.0267,0.76 v 11.84 h -3.16 v -19.28 h 1.88 z"
         style="font-style:normal;font-variant:normal;font-weight:bold;font-stretch:normal;font-family:Lato;-inkscape-font-specification:'Lato Bold';letter-spacing:0.16228186px;word-spacing:0px;fill:#182957;fill-opacity:1;stroke-width:0.77441567"
         id="path861"
         inkscape:connector-curvature="0" />
      <path
         d="m 619.61115,533.56492 v 2.94667 h -5.8 v 16.33333 h -3.58667 v -16.33333 h -5.82666 v -2.94667 z"
         style="font-style:normal;font-variant:normal;font-weight:bold;font-stretch:normal;font-family:Lato;-inkscape-font-specification:'Lato Bold';letter-spacing:0.16228186px;word-spacing:0px;fill:#182957;fill-opacity:1;stroke-width:0.77441567"
         id="path863"
         inkscape:connector-curvature="0" />
      <path
         d="m 629.83218,549.95159 q 1.04,0 1.85333,-0.34667 0.82667,-0.34667 1.38667,-0.97333 0.57333,-0.62667 0.86667,-1.52 0.30666,-0.89334 0.30666,-2 v -11.54667 h 3.58667 v 11.54667 q 0,1.72 -0.56,3.18666 -0.54667,1.45334 -1.58667,2.52 -1.04,1.05334 -2.52,1.65334 -1.48,0.58666 -3.33333,0.58666 -1.85333,0 -3.33333,-0.58666 -1.48,-0.6 -2.52,-1.65334 -1.02667,-1.06666 -1.58667,-2.52 -0.54667,-1.46666 -0.54667,-3.18666 v -11.54667 h 3.58667 v 11.53333 q 0,1.10667 0.29333,2 0.30667,0.89334 0.86667,1.53334 0.56,0.62666 1.37333,0.97333 0.82667,0.34667 1.86667,0.34667 z"
         style="font-style:normal;font-variant:normal;font-weight:bold;font-stretch:normal;font-family:Lato;-inkscape-font-specification:'Lato Bold';letter-spacing:0.16228186px;word-spacing:0px;fill:#182957;fill-opacity:1;stroke-width:0.77441567"
         id="path865"
         inkscape:connector-curvature="0" />
      <path
         d="m 645.36822,541.64492 h 0.84 q 0.50666,0 0.84,-0.13333 0.33333,-0.14667 0.57333,-0.45334 l 5.32,-6.73333 q 0.33333,-0.42666 0.69333,-0.58666 0.37333,-0.17334 0.93333,-0.17334 h 3.09334 l -6.49334,8.01333 q -0.30666,0.37334 -0.58666,0.62667 -0.28,0.25333 -0.6,0.41333 0.44,0.16 0.78666,0.45334 0.36,0.29333 0.69334,0.74666 l 6.69333,9.02667 h -3.17333 q -0.64,0 -0.96,-0.17333 -0.30667,-0.18667 -0.52,-0.53334 l -5.45333,-7.12 q -0.26667,-0.34666 -0.6,-0.49333 -0.33334,-0.16 -0.94667,-0.16 h -1.13333 v 8.48 h -3.58667 v -19.29333 h 3.58667 z"
         style="font-style:normal;font-variant:normal;font-weight:bold;font-stretch:normal;font-family:Lato;-inkscape-font-specification:'Lato Bold';letter-spacing:0.16228186px;word-spacing:0px;fill:#182957;fill-opacity:1;stroke-width:0.77441567"
         id="path867"
         inkscape:connector-curvature="0" />
      <path
         d="m 569.48991,584.12597 h -3.6 v -19.28 h 3.6 z"
         style="font-style:normal;font-variant:normal;font-weight:bold;font-stretch:normal;font-family:Lato;-inkscape-font-specification:'Lato Bold';letter-spacing:0.03042785px;fill:#182957;fill-opacity:1;stroke-width:0.77441567"
         id="path869"
         inkscape:connector-curvature="0"
         sodipodi:nodetypes="ccccc" />
      <path
         d="m 575.74575,564.84597 c 0.16,0 0.29333,0.009 0.4,0.0267 0.10667,0.009 0.2,0.0355 0.28,0.08 0.0889,0.0355 0.17334,0.0933 0.25334,0.17333 0.08,0.0711 0.16889,0.1689 0.26666,0.29334 l 10.12,12.89333 c -0.0355,-0.31111 -0.0622,-0.61333 -0.08,-0.90667 -0.009,-0.30222 -0.0133,-0.58222 -0.0133,-0.84 v -11.72 h 3.16 v 19.28 h -1.85333 c -0.28445,0 -0.52,-0.0444 -0.70667,-0.13333 -0.18667,-0.0889 -0.36889,-0.24888 -0.54667,-0.48 l -10.08,-12.84 c 0.0267,0.28445 0.0444,0.56889 0.0533,0.85333 0.0178,0.27556 0.0267,0.5289 0.0267,0.76 v 11.84 h -3.16 v -19.28 h 1.88 z"
         style="font-style:normal;font-variant:normal;font-weight:bold;font-stretch:normal;font-family:Lato;-inkscape-font-specification:'Lato Bold';letter-spacing:0.03042785px;fill:#182957;fill-opacity:1;stroke-width:0.77441567"
         id="path871"
         inkscape:connector-curvature="0"
         sodipodi:nodetypes="cccccccscccsscccsccccc" />
      <path
         d="m 611.17243,574.48597 c 0,1.41334 -0.23556,2.71112 -0.70667,3.89334 -0.47111,1.18222 -1.13333,2.2 -1.98666,3.05333 -0.85333,0.85334 -1.88,1.51556 -3.08,1.98667 -1.2,0.47111 -2.52889,0.70666 -3.98667,0.70666 h -7.36 v -19.28 h 7.36 c 1.45778,0 2.78667,0.24 3.98667,0.72 1.2,0.47112 2.22667,1.13334 3.08,1.98667 0.85333,0.84445 1.51555,1.85778 1.98666,3.04 0.47111,1.18222 0.70667,2.48 0.70667,3.89333 z m -3.66667,0 c 0,-1.05777 -0.14222,-2.00444 -0.42666,-2.84 -0.28445,-0.84444 -0.68889,-1.55555 -1.21334,-2.13333 -0.52444,-0.58666 -1.16444,-1.03555 -1.92,-1.34667 -0.74667,-0.3111 -1.59111,-0.46666 -2.53333,-0.46666 h -3.74667 v 13.57333 h 3.74667 c 0.94222,0 1.78666,-0.15555 2.53333,-0.46667 0.75556,-0.3111 1.39556,-0.75555 1.92,-1.33333 0.52445,-0.58666 0.92889,-1.29777 1.21334,-2.13333 0.28444,-0.84444 0.42666,-1.79556 0.42666,-2.85334 z"
         style="font-style:normal;font-variant:normal;font-weight:bold;font-stretch:normal;font-family:Lato;-inkscape-font-specification:'Lato Bold';letter-spacing:0.03042785px;fill:#182957;fill-opacity:1;stroke-width:0.77441567"
         id="path873"
         inkscape:connector-curvature="0"
         sodipodi:nodetypes="scscsccscccsscccsccscccs" />
      <path
         d="m 632.52411,574.48597 c 0,1.41334 -0.23556,2.72445 -0.70667,3.93334 -0.47111,1.2 -1.13334,2.24 -1.98667,3.12 -0.85333,0.88 -1.88,1.56889 -3.08,2.06666 -1.2,0.4889 -2.52889,0.73334 -3.98666,0.73334 -1.45778,0 -2.79111,-0.24444 -4,-0.73334 -1.2,-0.49777 -2.23111,-1.18666 -3.09334,-2.06666 -0.85333,-0.88 -1.51555,-1.92 -1.98666,-3.12 -0.47111,-1.20889 -0.70667,-2.52 -0.70667,-3.93334 0,-1.41333 0.23556,-2.72 0.70667,-3.92 0.47111,-1.20888 1.13333,-2.25333 1.98666,-3.13333 0.86223,-0.88 1.89334,-1.56444 3.09334,-2.05333 1.20889,-0.49778 2.54222,-0.74667 4,-0.74667 1.45777,0 2.78666,0.24889 3.98666,0.74667 1.2,0.49778 2.22667,1.18666 3.08,2.06666 0.85333,0.87112 1.51556,1.91112 1.98667,3.12 0.47111,1.2 0.70667,2.50667 0.70667,3.92 z m -3.68,0 c 0,-1.05777 -0.14222,-2.00444 -0.42667,-2.84 -0.27555,-0.84444 -0.67555,-1.55999 -1.2,-2.14666 -0.52445,-0.58666 -1.16445,-1.03555 -1.92,-1.34667 -0.74667,-0.31111 -1.59111,-0.46667 -2.53333,-0.46667 -0.94223,0 -1.79112,0.15556 -2.54667,0.46667 -0.75555,0.31112 -1.4,0.76001 -1.93333,1.34667 -0.52445,0.58667 -0.92889,1.30222 -1.21334,2.14666 -0.28444,0.83556 -0.42666,1.78223 -0.42666,2.84 0,1.05778 0.14222,2.0089 0.42666,2.85334 0.28445,0.83556 0.68889,1.54667 1.21334,2.13333 0.53333,0.57778 1.17778,1.02223 1.93333,1.33333 0.75555,0.31112 1.60444,0.46667 2.54667,0.46667 0.94222,0 1.78666,-0.15555 2.53333,-0.46667 0.75555,-0.3111 1.39555,-0.75555 1.92,-1.33333 0.52445,-0.58666 0.92445,-1.29777 1.2,-2.13333 0.28445,-0.84444 0.42667,-1.79556 0.42667,-2.85334 z"
         style="font-style:normal;font-variant:normal;font-weight:bold;font-stretch:normal;font-family:Lato;-inkscape-font-specification:'Lato Bold';letter-spacing:0.03042785px;fill:#182957;fill-opacity:1;stroke-width:0.77441567"
         id="path875"
         inkscape:connector-curvature="0"
         sodipodi:nodetypes="scscscccscccscccsscscssccscccscccs" />
      <path
         d="m 637.24328,564.84597 c 0.16,0 0.29333,0.009 0.4,0.0267 0.10667,0.009 0.2,0.0355 0.28,0.08 0.0889,0.0355 0.17334,0.0933 0.25334,0.17333 0.08,0.0711 0.16889,0.1689 0.26666,0.29334 l 10.12,12.89333 c -0.0355,-0.31111 -0.0622,-0.61333 -0.08,-0.90667 -0.009,-0.30222 -0.0133,-0.58222 -0.0133,-0.84 v -11.72 h 3.16 v 19.28 h -1.85333 c -0.28445,0 -0.52,-0.0444 -0.70667,-0.13333 -0.18667,-0.0889 -0.36889,-0.24888 -0.54667,-0.48 l -10.08,-12.84 c 0.0267,0.28445 0.0444,0.56889 0.0533,0.85333 0.0178,0.27556 0.0267,0.5289 0.0267,0.76 v 11.84 h -3.16 v -19.28 h 1.88 z"
         style="font-style:normal;font-variant:normal;font-weight:bold;font-stretch:normal;font-family:Lato;-inkscape-font-specification:'Lato Bold';letter-spacing:0.03042785px;fill:#182957;fill-opacity:1;stroke-width:0.77441567"
         id="path877"
         inkscape:connector-curvature="0"
         sodipodi:nodetypes="cccccccscccsscccsccccc" />
      <path
         d="m 667.70996,564.84597 v 2.85334 h -8.54667 v 5.34666 h 6.73334 v 2.76 h -6.73334 v 5.45334 h 8.54667 v 2.86666 h -12.16 v -19.28 z"
         style="font-style:normal;font-variant:normal;font-weight:bold;font-stretch:normal;font-family:Lato;-inkscape-font-specification:'Lato Bold';letter-spacing:0.03042785px;fill:#182957;fill-opacity:1;stroke-width:0.77441567"
         id="path879"
         inkscape:connector-curvature="0"
         sodipodi:nodetypes="ccccccccccccc" />
      <path
         d="m 681.17414,568.35264 c -0.0978,0.19556 -0.21334,0.33333 -0.34667,0.41333 -0.12444,0.08 -0.27555,0.12 -0.45333,0.12 -0.17778,0 -0.37778,-0.0667 -0.6,-0.2 -0.22222,-0.14222 -0.48444,-0.29777 -0.78667,-0.46666 -0.30222,-0.16889 -0.65777,-0.32 -1.06666,-0.45334 -0.4,-0.14222 -0.87556,-0.21333 -1.42667,-0.21333 -0.49778,0 -0.93334,0.0622 -1.30667,0.18667 -0.36444,0.11556 -0.67555,0.28 -0.93333,0.49333 -0.24889,0.21334 -0.43555,0.47111 -0.56,0.77333 -0.12445,0.29334 -0.18667,0.61778 -0.18667,0.97334 0,0.45334 0.12445,0.83111 0.37334,1.13333 0.25777,0.30222 0.59555,0.56 1.01333,0.77333 0.41778,0.21334 0.89334,0.40445 1.42667,0.57334 0.53333,0.16889 1.07555,0.35111 1.62666,0.54666 0.56,0.18667 1.10667,0.40889 1.64,0.66667 0.53333,0.24889 1.00889,0.56889 1.42667,0.96 0.41778,0.38222 0.75111,0.85333 1,1.41333 0.25778,0.56 0.38667,1.24 0.38667,2.04 0,0.87112 -0.15111,1.6889 -0.45334,2.45334 -0.29333,0.75556 -0.72889,1.41778 -1.30666,1.98666 -0.56889,0.56 -1.26667,1.00445 -2.09334,1.33334 -0.82667,0.32 -1.77333,0.48 -2.84,0.48 -0.61333,0 -1.21778,-0.0622 -1.81333,-0.18667 -0.59555,-0.11555 -1.16889,-0.28444 -1.72,-0.50667 -0.54222,-0.22222 -1.05333,-0.48888 -1.53333,-0.8 -0.47111,-0.3111 -0.89334,-0.65777 -1.26667,-1.04 l 1.04,-1.72 c 0.0978,-0.12444 0.21334,-0.22666 0.34667,-0.30666 0.14222,-0.0889 0.29777,-0.13334 0.46666,-0.13334 0.22223,0 0.46223,0.0933 0.72,0.28 0.25778,0.17778 0.56,0.37778 0.90667,0.6 0.35555,0.22223 0.76889,0.42668 1.24,0.61334 0.48,0.17778 1.05333,0.26666 1.72,0.26666 1.02222,0 1.81333,-0.24 2.37333,-0.72 0.56,-0.48888 0.84,-1.18666 0.84,-2.09333 0,-0.50666 -0.12889,-0.92 -0.38666,-1.24 -0.24889,-0.32 -0.58223,-0.58666 -1,-0.8 -0.41778,-0.22222 -0.89334,-0.40888 -1.42667,-0.56 -0.53333,-0.15111 -1.07556,-0.31555 -1.62667,-0.49333 -0.55111,-0.17778 -1.09333,-0.39111 -1.62666,-0.64 -0.53333,-0.24889 -1.00889,-0.57334 -1.42667,-0.97334 -0.41778,-0.4 -0.75556,-0.89777 -1.01333,-1.49333 -0.24889,-0.60444 -0.37334,-1.34667 -0.37334,-2.22667 0,-0.70222 0.13778,-1.38666 0.41334,-2.05333 0.28444,-0.66666 0.69333,-1.25777 1.22666,-1.77333 0.54223,-0.51556 1.20445,-0.92889 1.98667,-1.24 0.78222,-0.31111 1.67555,-0.46667 2.68,-0.46667 1.13778,0 2.18667,0.17778 3.14667,0.53333 0.96,0.35556 1.77778,0.85334 2.45333,1.49334 z"
         style="font-style:normal;font-variant:normal;font-weight:bold;font-stretch:normal;font-family:Lato;-inkscape-font-specification:'Lato Bold';letter-spacing:0.03042785px;fill:#182957;fill-opacity:1;stroke-width:0.77441567"
         id="path881"
         inkscape:connector-curvature="0"
         sodipodi:nodetypes="ccscccscccscscccccscccsccccccscccscsccsccscscccsccc" />
      <path
         d="m 689.23415,584.12597 h -3.6 v -19.28 h 3.6 z"
         style="font-style:normal;font-variant:normal;font-weight:bold;font-stretch:normal;font-family:Lato;-inkscape-font-specification:'Lato Bold';letter-spacing:0.03042785px;fill:#182957;fill-opacity:1;stroke-width:0.77441567"
         id="path883"
         inkscape:connector-curvature="0"
         sodipodi:nodetypes="ccccc" />
      <path
         d="m 710.55665,584.12597 h -2.77333 c -0.31111,0 -0.56889,-0.0756 -0.77333,-0.22666 -0.19556,-0.16 -0.33778,-0.35555 -0.42667,-0.58667 l -1.44,-3.93333 h -7.98666 l -1.44,3.93333 c -0.0711,0.20445 -0.21334,0.39112 -0.42667,0.56 -0.20445,0.16889 -0.45778,0.25333 -0.76,0.25333 h -2.78667 l 7.57333,-19.28 h 3.66667 z m -12.47999,-7.28 h 6.14666 l -2.34667,-6.41333 c -0.10667,-0.28444 -0.22667,-0.61778 -0.36,-1 -0.12444,-0.39111 -0.24888,-0.81333 -0.37333,-1.26667 -0.12445,0.45334 -0.24889,0.87556 -0.37333,1.26667 -0.11556,0.39112 -0.23112,0.73334 -0.34667,1.02667 z"
         style="font-style:normal;font-variant:normal;font-weight:bold;font-stretch:normal;font-family:Lato;-inkscape-font-specification:'Lato Bold';letter-spacing:0.03042785px;fill:#182957;fill-opacity:1;stroke-width:0.77441567"
         id="path885"
         inkscape:connector-curvature="0"
         sodipodi:nodetypes="csccccccscccccccccccc" />
    </g>
    <path
       id="path909"
       style="opacity:0.98999999;fill:#182957;fill-opacity:1;stroke:none;stroke-width:0.26458332;stroke-linecap:round;stroke-linejoin:round;stroke-miterlimit:4;stroke-dasharray:none;stroke-dashoffset:0;stroke-opacity:1"
       d="m 25.407633,281.88625 v 10.66195 c 0,2.43422 -1.973482,4.40756 -4.407899,4.40756 -2.434414,0 -4.411816,-1.97334 -4.407899,-4.40756 l 0.01716,-10.66195 h 2.649067 m 0,0 v 10.61542 c 0,0.94728 0.779779,1.71521 1.741684,1.71521 0.961909,0 1.741689,-0.76793 1.741689,-1.71521 v -10.61542 h 2.666204"
       inkscape:connector-curvature="0"
       sodipodi:nodetypes="csscccccccc" />
    <path
       id="path938"
       style="opacity:0.98999999;fill:#182957;fill-opacity:1;stroke:none;stroke-width:0.26458332;stroke-linecap:round;stroke-linejoin:round;stroke-miterlimit:4;stroke-dasharray:none;stroke-dashoffset:0;stroke-opacity:1"
       d="M -3.2511796e-4,281.88625 H 10.792218 c 2.464037,0 4.461535,1.99765 4.461535,4.46188 0,2.46424 -1.997501,4.46585 -4.461535,4.46189 l -10.79254311796,-0.0174 v -2.68152 m 0,0 H 10.745111 c 0.95889,0 1.736227,-0.78933 1.736227,-1.76301 0,-0.9737 -0.777337,-1.76303 -1.736227,-1.76303 H -3.2511796e-4 v -2.69885 m 0,6.20753 H 10.792218 c 2.464037,0 4.461535,1.99766 4.461535,4.46189 0,2.46423 -1.997501,4.46585 -4.461535,4.46189 l -10.79254311796,-0.0174 v -2.6815 m 0,0 H 10.745111 c 0.95889,0 1.736227,-0.78933 1.736227,-1.76303 0,-0.97369 -0.777337,-1.76302 -1.736227,-1.76302 H -3.2511796e-4 v -2.69886 M 12.094589,293.64107 h 0.111989"
       inkscape:connector-curvature="0" />
    <path
       sodipodi:nodetypes="csscccccccc"
       inkscape:connector-curvature="0"
       d="M 35.622403,296.95576 V 286.2938 c 0,-2.43423 -1.973481,-4.40755 -4.407898,-4.40755 -2.434414,0 -4.411817,1.97333 -4.407899,4.40755 l 0.01716,10.66196 h 2.649066 m 0,0 v -10.61542 c 0,-0.94729 0.779779,-1.71523 1.741685,-1.71523 0.961909,0 1.741689,0.76794 1.741689,1.71523 v 10.61542 h 2.666203"
       style="opacity:0.98999999;fill:#0193ac;fill-opacity:1;stroke:none;stroke-width:0.26458332;stroke-linecap:round;stroke-linejoin:round;stroke-miterlimit:4;stroke-dasharray:none;stroke-dashoffset:0;stroke-opacity:1"
       id="path941" />
    <path
       id="path943"
       style="opacity:0.98999999;fill:#0193ac;fill-opacity:1;stroke:none;stroke-width:0.26458332;stroke-linecap:round;stroke-linejoin:round;stroke-miterlimit:4;stroke-dasharray:none;stroke-dashoffset:0;stroke-opacity:1"
       d="M 41.771981,296.95576 V 286.2938 c 0,-2.43423 -1.973482,-4.40755 -4.407899,-4.40755 -2.434414,0 -4.411816,1.97333 -4.407899,4.40755 l 0.01716,10.66196 h 2.649066 m 0,0 v -10.61542 c 0,-0.94729 0.77978,-1.71523 1.741685,-1.71523 0.961909,0 1.741689,0.76794 1.741689,1.71523 v 10.61542 h 2.666204"
       inkscape:connector-curvature="0"
       sodipodi:nodetypes="csscccccccc" />
    <path
       sodipodi:nodetypes="csscccccccc"
       inkscape:connector-curvature="0"
       d="M 52.083152,296.95576 V 286.2938 c 0,-2.43423 -1.973481,-4.40755 -4.407898,-4.40755 -2.434414,0 -4.411817,1.97333 -4.407899,4.40755 l 0.01716,10.66196 h 2.649067 m 0,0 v -10.61542 c 0,-0.94729 0.77978,-1.71523 1.741685,-1.71523 0.961909,0 1.741689,0.76794 1.741689,1.71523 v 10.61542 h 2.666203"
       style="opacity:0.98999999;fill:#0193ac;fill-opacity:1;stroke:none;stroke-width:0.26458332;stroke-linecap:round;stroke-linejoin:round;stroke-miterlimit:4;stroke-dasharray:none;stroke-dashoffset:0;stroke-opacity:1"
       id="path945" />
  </g>
</svg>
